<svg xmlns="http://www.w3.org/2000/svg" version="1.1" xmlns:xlink="http://www.w3.org/1999/xlink" xmlns:svgjs="http://svgjs.dev/svgjs" width="1000" height="623" viewBox="0 0 1000 623"><g transform="matrix(1,0,0,1,-0.6060606060606233,0.2522267206477409)"><svg viewBox="0 0 396 247" data-background-color="#ffffff" preserveAspectRatio="xMidYMid meet" height="623" width="1000" xmlns="http://www.w3.org/2000/svg" xmlns:xlink="http://www.w3.org/1999/xlink"><g id="tight-bounds" transform="matrix(1,0,0,1,0.2400000000000091,-0.09999999999999432)"><svg viewBox="0 0 395.52 247.2" height="247.2" width="395.52"><g><svg></svg></g><g><svg viewBox="0 0 395.52 247.2" height="247.2" width="395.52"><g transform="matrix(1,0,0,1,75.54432000000001,70.08019848075955)"><svg viewBox="0 0 244.43135999999996 107.03960303848089" height="107.03960303848089" width="244.43135999999996"><g><svg viewBox="0 0 244.43135999999996 107.03960303848089" height="107.03960303848089" width="244.43135999999996"><g><svg viewBox="0 0 244.43135999999996 107.03960303848089" height="107.03960303848089" width="244.43135999999996"><g><svg viewBox="0 0 244.43135999999996 107.03960303848089" height="107.03960303848089" width="244.43135999999996"><g id="textblocktransform"><svg viewBox="0 0 244.43135999999996 107.03960303848089" height="107.03960303848089" width="244.43135999999996" id="textblock"><g><svg viewBox="0 0 244.43135999999996 57.7320471428792" height="57.7320471428792" width="244.43135999999996"><g transform="matrix(1,0,0,1,0,0)"><svg width="244.43135999999996" viewBox="3.45 -39.2 167.86389160156253 39.650000000000006" height="57.7320471428792" data-palette-color="#0080ff"><g transform="matrix(1,0,0,1,0,0)"><g><svg width="16.815927734375002" viewBox="1.78 -36.36 74.21 36.36" height="8.239" data-palette-color="#0080ff" id="scriptelement" x="154.4979638671875" y="-39.2"><path d="M12.91-30.02L1.78-30.02 1.78-36.36 31.64-36.36 31.64-30.02 20.51-30.02 20.51 0 12.91 0 12.91-30.02ZM36.57 0L36.57-36.36 46.06-36.36 56.07-11.93 56.5-11.93 66.51-36.36 75.99-36.36 75.99 0 68.53 0 68.53-23.67 68.23-23.67 58.82-0.18 53.74-0.18 44.33-23.76 44.03-23.76 44.03 0 36.57 0Z" opacity="1" transform="matrix(1,0,0,1,0,0)" fill="#0080ff" class="undefined-123" data-fill-palette-color="primary" id="pv-123"></path></svg></g></g><path d="M28.9-24.1Q28.9-21.3 27.58-18.85 26.25-16.4 23.43-14.9 20.6-13.4 16.3-13.4L16.3-13.4 10.45-13.4 10.45 0 3.45 0 3.45-34.9 16.3-34.9Q20.35-34.9 23.2-33.5 26.05-32.1 27.48-29.65 28.9-27.2 28.9-24.1L28.9-24.1ZM16-19.05Q18.9-19.05 20.3-20.38 21.7-21.7 21.7-24.1L21.7-24.1Q21.7-29.2 16-29.2L16-29.2 10.45-29.2 10.45-19.05 16-19.05ZM40.85-23.4Q42.2-25.6 44.37-26.85 46.55-28.1 49.35-28.1L49.35-28.1 49.35-20.75 47.5-20.75Q44.2-20.75 42.52-19.2 40.85-17.65 40.85-13.8L40.85-13.8 40.85 0 33.85 0 33.85-27.7 40.85-27.7 40.85-23.4ZM57.6-31Q55.75-31 54.52-32.18 53.3-33.35 53.3-35.1L53.3-35.1Q53.3-36.85 54.52-38.02 55.75-39.2 57.6-39.2L57.6-39.2Q59.45-39.2 60.67-38.02 61.9-36.85 61.9-35.1L61.9-35.1Q61.9-33.35 60.67-32.18 59.45-31 57.6-31L57.6-31ZM54.05-27.7L61.05-27.7 61.05 0 54.05 0 54.05-27.7ZM102.34-28.1Q107.44-28.1 110.57-24.98 113.69-21.85 113.69-16.25L113.69-16.25 113.69 0 106.69 0 106.69-15.3Q106.69-18.55 105.04-20.28 103.39-22 100.54-22L100.54-22Q97.69-22 96.02-20.28 94.34-18.55 94.34-15.3L94.34-15.3 94.34 0 87.34 0 87.34-15.3Q87.34-18.55 85.69-20.28 84.04-22 81.19-22L81.19-22Q78.29-22 76.62-20.28 74.94-18.55 74.94-15.3L74.94-15.3 74.94 0 67.94 0 67.94-27.7 74.94-27.7 74.94-24.35Q76.29-26.1 78.42-27.1 80.54-28.1 83.09-28.1L83.09-28.1Q86.34-28.1 88.89-26.73 91.44-25.35 92.84-22.8L92.84-22.8Q94.19-25.2 96.77-26.65 99.34-28.1 102.34-28.1L102.34-28.1ZM146.09-14.45Q146.09-12.95 145.89-11.75L145.89-11.75 125.64-11.75Q125.89-8.75 127.74-7.05 129.59-5.35 132.29-5.35L132.29-5.35Q136.19-5.35 137.84-8.7L137.84-8.7 145.39-8.7Q144.19-4.7 140.79-2.13 137.39 0.45 132.44 0.45L132.44 0.45Q128.44 0.45 125.27-1.33 122.09-3.1 120.32-6.35 118.54-9.6 118.54-13.85L118.54-13.85Q118.54-18.15 120.29-21.4 122.04-24.65 125.19-26.4 128.34-28.15 132.44-28.15L132.44-28.15Q136.39-28.15 139.52-26.45 142.64-24.75 144.37-21.63 146.09-18.5 146.09-14.45L146.09-14.45ZM125.69-16.45L138.84-16.45Q138.79-19.15 136.89-20.78 134.99-22.4 132.24-22.4L132.24-22.4Q129.64-22.4 127.87-20.83 126.09-19.25 125.69-16.45L125.69-16.45Z" opacity="1" transform="matrix(1,0,0,1,0,0)" fill="#0080ff" class="undefined-text-0" data-fill-palette-color="primary" id="text-0"></path></svg></g></svg></g><g transform="matrix(1,0,0,1,0,71.36119790418155)"><svg viewBox="0 0 207.70432597557925 35.67840513429935" height="35.67840513429935" width="207.70432597557925"><g transform="matrix(1,0,0,1,0,0)"><svg width="207.70432597557925" viewBox="3.45 -34.9 282.64 48.55" height="35.67840513429935" data-palette-color="#39cccc"><path d="M10.45-34.9L10.45-5.55 21.95-5.55 21.95 0 3.45 0 3.45-34.9 10.45-34.9ZM29.21-13.95Q29.21-18.15 30.88-21.4 32.56-24.65 35.43-26.4 38.31-28.15 41.86-28.15L41.86-28.15Q44.96-28.15 47.28-26.9 49.61-25.65 51.01-23.75L51.01-23.75 51.01-27.7 58.06-27.7 58.06 0 51.01 0 51.01-4.05Q49.66-2.1 47.28-0.83 44.91 0.45 41.81 0.45L41.81 0.45Q38.31 0.45 35.43-1.35 32.56-3.15 30.88-6.43 29.21-9.7 29.21-13.95L29.21-13.95ZM51.01-13.85Q51.01-16.4 50.01-18.23 49.01-20.05 47.31-21.03 45.61-22 43.66-22L43.66-22Q41.71-22 40.06-21.05 38.41-20.1 37.38-18.28 36.36-16.45 36.36-13.95L36.36-13.95Q36.36-11.45 37.38-9.58 38.41-7.7 40.08-6.7 41.76-5.7 43.66-5.7L43.66-5.7Q45.61-5.7 47.31-6.68 49.01-7.65 50.01-9.47 51.01-11.3 51.01-13.85L51.01-13.85ZM84.86-28.1Q89.81-28.1 92.86-24.98 95.91-21.85 95.91-16.25L95.91-16.25 95.91 0 88.91 0 88.91-15.3Q88.91-18.6 87.26-20.38 85.61-22.15 82.76-22.15L82.76-22.15Q79.86-22.15 78.19-20.38 76.51-18.6 76.51-15.3L76.51-15.3 76.51 0 69.51 0 69.51-27.7 76.51-27.7 76.51-24.25Q77.91-26.05 80.09-27.08 82.26-28.1 84.86-28.1L84.86-28.1ZM118.02-28.15Q121.12-28.15 123.47-26.93 125.82-25.7 127.17-23.75L127.17-23.75 127.17-27.7 134.22-27.7 134.22 0.2Q134.22 4.05 132.67 7.08 131.12 10.1 128.02 11.88 124.92 13.65 120.52 13.65L120.52 13.65Q114.62 13.65 110.84 10.9 107.07 8.15 106.57 3.4L106.57 3.4 113.52 3.4Q114.07 5.3 115.89 6.43 117.72 7.55 120.32 7.55L120.32 7.55Q123.37 7.55 125.27 5.73 127.17 3.9 127.17 0.2L127.17 0.2 127.17-4.1Q125.82-2.15 123.44-0.85 121.07 0.45 118.02 0.45L118.02 0.45Q114.52 0.45 111.62-1.35 108.72-3.15 107.04-6.43 105.37-9.7 105.37-13.95L105.37-13.95Q105.37-18.15 107.04-21.4 108.72-24.65 111.59-26.4 114.47-28.15 118.02-28.15L118.02-28.15ZM127.17-13.85Q127.17-16.4 126.17-18.23 125.17-20.05 123.47-21.03 121.77-22 119.82-22L119.82-22Q117.87-22 116.22-21.05 114.57-20.1 113.54-18.28 112.52-16.45 112.52-13.95L112.52-13.95Q112.52-11.45 113.54-9.58 114.57-7.7 116.24-6.7 117.92-5.7 119.82-5.7L119.82-5.7Q121.77-5.7 123.47-6.68 125.17-7.65 126.17-9.47 127.17-11.3 127.17-13.85L127.17-13.85ZM164.77-27.7L171.82-27.7 171.82 0 164.77 0 164.77-3.5Q163.42-1.7 161.25-0.68 159.07 0.35 156.52 0.35L156.52 0.35Q153.27 0.35 150.77-1.03 148.27-2.4 146.85-5.08 145.42-7.75 145.42-11.45L145.42-11.45 145.42-27.7 152.42-27.7 152.42-12.45Q152.42-9.15 154.07-7.38 155.72-5.6 158.57-5.6L158.57-5.6Q161.47-5.6 163.12-7.38 164.77-9.15 164.77-12.45L164.77-12.45 164.77-27.7ZM181.53-13.95Q181.53-18.15 183.2-21.4 184.88-24.65 187.75-26.4 190.63-28.15 194.18-28.15L194.18-28.15Q197.28-28.15 199.6-26.9 201.93-25.65 203.33-23.75L203.33-23.75 203.33-27.7 210.38-27.7 210.38 0 203.33 0 203.33-4.05Q201.98-2.1 199.6-0.83 197.23 0.45 194.13 0.45L194.13 0.45Q190.63 0.45 187.75-1.35 184.88-3.15 183.2-6.43 181.53-9.7 181.53-13.95L181.53-13.95ZM203.33-13.85Q203.33-16.4 202.33-18.23 201.33-20.05 199.63-21.03 197.93-22 195.98-22L195.98-22Q194.03-22 192.38-21.05 190.73-20.1 189.7-18.28 188.68-16.45 188.68-13.95L188.68-13.95Q188.68-11.45 189.7-9.58 190.73-7.7 192.4-6.7 194.08-5.7 195.98-5.7L195.98-5.7Q197.93-5.7 199.63-6.68 201.33-7.65 202.33-9.47 203.33-11.3 203.33-13.85L203.33-13.85ZM232.68-28.15Q235.78-28.15 238.13-26.93 240.48-25.7 241.83-23.75L241.83-23.75 241.83-27.7 248.88-27.7 248.88 0.2Q248.88 4.05 247.33 7.08 245.78 10.1 242.68 11.88 239.58 13.65 235.18 13.65L235.18 13.65Q229.28 13.65 225.51 10.9 221.73 8.15 221.23 3.4L221.23 3.4 228.18 3.4Q228.73 5.3 230.56 6.43 232.38 7.55 234.98 7.55L234.98 7.55Q238.03 7.55 239.93 5.73 241.83 3.9 241.83 0.2L241.83 0.2 241.83-4.1Q240.48-2.15 238.11-0.85 235.73 0.45 232.68 0.45L232.68 0.45Q229.18 0.45 226.28-1.35 223.38-3.15 221.71-6.43 220.03-9.7 220.03-13.95L220.03-13.95Q220.03-18.15 221.71-21.4 223.38-24.65 226.26-26.4 229.13-28.15 232.68-28.15L232.68-28.15ZM241.83-13.85Q241.83-16.4 240.83-18.23 239.83-20.05 238.13-21.03 236.43-22 234.48-22L234.48-22Q232.53-22 230.88-21.05 229.23-20.1 228.21-18.28 227.18-16.45 227.18-13.95L227.18-13.95Q227.18-11.45 228.21-9.58 229.23-7.7 230.91-6.7 232.58-5.7 234.48-5.7L234.48-5.7Q236.43-5.7 238.13-6.68 239.83-7.65 240.83-9.47 241.83-11.3 241.83-13.85L241.83-13.85ZM286.09-14.45Q286.09-12.95 285.89-11.75L285.89-11.75 265.64-11.75Q265.89-8.75 267.74-7.05 269.59-5.35 272.29-5.35L272.29-5.35Q276.19-5.35 277.84-8.7L277.84-8.7 285.39-8.7Q284.19-4.7 280.79-2.13 277.39 0.45 272.44 0.45L272.44 0.45Q268.44 0.45 265.26-1.33 262.09-3.1 260.31-6.35 258.54-9.6 258.54-13.85L258.54-13.85Q258.54-18.15 260.29-21.4 262.04-24.65 265.19-26.4 268.34-28.15 272.44-28.15L272.44-28.15Q276.39-28.15 279.51-26.45 282.64-24.75 284.36-21.63 286.09-18.5 286.09-14.45L286.09-14.45ZM265.69-16.45L278.84-16.45Q278.79-19.15 276.89-20.78 274.99-22.4 272.24-22.4L272.24-22.4Q269.64-22.4 267.86-20.83 266.09-19.25 265.69-16.45L265.69-16.45Z" opacity="1" transform="matrix(1,0,0,1,0,0)" fill="#39cccc" class="undefined-text-1" data-fill-palette-color="secondary" id="text-1"></path></svg></g></svg></g></svg></g></svg></g></svg></g></svg></g></svg></g><path d="M236.913 64.08L236.913 4.949 0 4.949 0 242.251 236.913 242.251 236.913 183.12 231.707 183.12 231.707 237.045 5.206 237.045 5.206 10.155 231.707 10.155 231.707 64.08Z" fill="#0080ff" stroke="transparent" data-fill-palette-color="primary"></path></svg></g><defs></defs></svg><rect width="395.52" height="247.2" fill="none" stroke="none" visibility="hidden"></rect></g></svg></g></svg>